<svg width="30" height="30" viewBox="0 0 30 30" fill="none" xmlns="http://www.w3.org/2000/svg">
<path fill-rule="evenodd" clip-rule="evenodd" d="M5.675 2.5H9.9C11.6625 2.5 13.075 3.9375 13.075 5.70125V9.9625C13.075 11.7375 11.6625 13.1625 9.9 13.1625H5.675C3.925 13.1625 2.5 11.7375 2.5 9.9625V5.70125C2.5 3.9375 3.925 2.5 5.675 2.5ZM5.675 16.8369H9.9C11.6625 16.8369 13.075 18.2631 13.075 20.0381V24.2994C13.075 26.0619 11.6625 27.4994 9.9 27.4994H5.675C3.925 27.4994 2.5 26.0619 2.5 24.2994V20.0381C2.5 18.2631 3.925 16.8369 5.675 16.8369ZM24.3251 2.5H20.1001C18.3376 2.5 16.9251 3.9375 16.9251 5.70125V9.9625C16.9251 11.7375 18.3376 13.1625 20.1001 13.1625H24.3251C26.0751 13.1625 27.5001 11.7375 27.5001 9.9625V5.70125C27.5001 3.9375 26.0751 2.5 24.3251 2.5ZM20.1001 16.8369H24.3251C26.0751 16.8369 27.5001 18.2631 27.5001 20.0381V24.2994C27.5001 26.0619 26.0751 27.4994 24.3251 27.4994H20.1001C18.3376 27.4994 16.9251 26.0619 16.9251 24.2994V20.0381C16.9251 18.2631 18.3376 16.8369 20.1001 16.8369Z" fill="#BD9EFB"/>
</svg>
