<svg width="500" height="500" viewBox="0 0 500 500" fill="none" xmlns="http://www.w3.org/2000/svg">
<path d="M88.45 442.21C178.66 495.45 324.92 495.45 415.12 442.21C505.33 388.97 505.33 302.66 415.12 249.42C324.91 196.18 178.65 196.18 88.44 249.42C-1.75999 302.66 -1.75999 388.98 88.45 442.21Z" fill="#F5F5F5"/>
<path d="M391.14 431.05C415.545 431.05 435.33 419.629 435.33 405.54C435.33 391.451 415.545 380.03 391.14 380.03C366.734 380.03 346.95 391.451 346.95 405.54C346.95 419.629 366.734 431.05 391.14 431.05Z" fill="#E0E0E0"/>
<path d="M363.42 77.14L371.09 81.57C371.05 81.23 371.03 80.89 371.03 80.55V78.33C371.03 74.38 373.81 72.77 377.23 74.75C378.62 75.55 379.89 76.82 380.92 78.3C381.48 73.33 385.38 71.48 390.12 74.21C395.24 77.17 399.39 84.36 399.39 90.27V93.59C399.39 95.12 399.11 96.41 398.6 97.44L404.97 101.12C406.87 102.22 408.41 104.88 408.41 107.08C408.41 109.27 406.87 110.16 404.97 109.07L363.41 85.08C361.51 83.98 359.97 81.32 359.97 79.12C359.98 76.93 361.52 76.04 363.42 77.14Z" fill="#EBEBEB"/>
<path d="M330.6 99.48L336.39 102.82C336.36 102.56 336.34 102.3 336.34 102.05V100.37C336.34 97.39 338.43 96.18 341.02 97.67C342.07 98.27 343.03 99.23 343.81 100.35C344.23 96.6 347.18 95.2 350.75 97.26C354.62 99.49 357.75 104.92 357.75 109.38V111.89C357.75 113.05 357.54 114.02 357.16 114.8L361.97 117.58C363.4 118.41 364.57 120.42 364.57 122.08C364.57 123.74 363.41 124.41 361.97 123.58L330.61 105.47C329.18 104.64 328.01 102.63 328.01 100.97C328.01 99.32 329.17 98.65 330.6 99.48Z" fill="#EBEBEB"/>
<path d="M73.8801 288.62C73.3101 288.93 62.8601 291.89 58.9901 286.78C55.1201 281.66 61.5401 273.69 57.9101 270.75C54.2801 267.81 44.1001 270.77 41.6401 264.58C39.1901 258.39 46.4501 255.74 42.3701 249.5C39.8001 245.57 33.4801 243.38 32.9301 239.75C32.0001 233.69 42.0501 230.9 50.6401 236.62C59.2301 242.34 64.4301 239.72 67.1601 239.34C69.8901 238.96 75.7701 239.8 75.5801 249.38C75.3801 258.95 73.8801 288.62 73.8801 288.62Z" fill="#BD9EFB"/>
<path d="M74.5701 275.01C74.3001 275.01 74.0501 274.81 74.0101 274.53C71.0201 256.36 49.9001 241.58 38.9201 238.41C38.6201 238.32 38.4401 238.01 38.5301 237.7C38.6201 237.4 38.9301 237.22 39.2401 237.31C50.4701 240.55 72.0701 255.7 75.1401 274.34C75.1901 274.65 74.9801 274.94 74.6701 274.99C74.6301 275.01 74.6001 275.01 74.5701 275.01Z" fill="white"/>
<path d="M49.6701 259.8C49.4801 259.8 49.2901 259.7 49.1801 259.52C49.0201 259.25 49.1101 258.9 49.3801 258.74C49.7201 258.54 57.8501 253.79 65.8501 256.01C66.1501 256.09 66.3301 256.41 66.2501 256.71C66.1701 257.01 65.8601 257.19 65.5501 257.11C58.0201 255.02 50.0401 259.68 49.9701 259.72C49.8701 259.78 49.7701 259.8 49.6701 259.8Z" fill="white"/>
<path d="M77.9301 295.6C77.9301 298.19 79.8701 301.41 82.2601 302.79L203.59 372.84C205.98 374.22 209.86 374.22 212.25 372.84L378.26 277C380.65 275.62 382.59 272.4 382.59 269.81C382.59 267.22 380.65 264 378.26 262.62L256.93 192.57C254.54 191.19 250.66 191.19 248.27 192.57L82.2601 288.41C79.8701 289.79 77.9301 293.01 77.9301 295.6Z" fill="#37474F"/>
<path d="M207.92 364.5V373.87C206.35 373.87 204.78 373.53 203.59 372.84L82.2601 302.79C79.8701 301.41 77.9301 298.19 77.9301 295.6C77.9301 293.17 79.6401 290.19 81.8201 288.69C79.8801 290.08 80.0301 292.12 82.2601 293.41L203.59 363.46C204.78 364.15 206.35 364.5 207.92 364.5Z" fill="#263238"/>
<path d="M73.8701 288.56C71.6301 287.26 69.8101 283.98 69.8101 281.21V136.43C69.8101 133.67 71.7501 130.31 74.1401 128.93L240.15 33.09C242.54 31.71 246.3 31.64 248.54 32.94C250.78 34.24 252.6 37.52 252.6 40.29V185.07C252.6 187.83 250.66 191.19 248.27 192.57L82.2601 288.41C79.8701 289.79 76.1101 289.86 73.8701 288.56Z" fill="#455A64"/>
<path d="M81.7501 288.67C79.3601 289.79 75.9601 289.77 73.8701 288.56C71.6301 287.27 69.8101 283.98 69.8101 281.22V136.43C69.8101 135.05 70.2901 133.52 71.0801 132.17L79.2001 136.85V136.86C78.4201 138.22 77.9301 139.74 77.9301 141.12V285.91C77.9301 288.47 79.6001 289.62 81.7501 288.67Z" fill="#263238"/>
<path d="M77.9301 141.12V285.9C77.9301 288.66 79.8701 289.78 82.2601 288.4L248.27 192.56C250.66 191.18 252.6 187.82 252.6 185.06V40.28C252.6 37.52 250.66 36.4 248.27 37.78L82.2601 133.62C79.8701 135.01 77.9301 138.36 77.9301 141.12Z" fill="#37474F"/>
<path d="M82.26 293.41L203.59 363.46C205.98 364.84 209.86 364.84 212.25 363.46L378.26 267.62C380.65 266.24 380.65 264 378.26 262.62L256.93 192.57C254.54 191.19 250.66 191.19 248.27 192.57L82.26 288.41C79.87 289.79 79.87 292.03 82.26 293.41Z" fill="#455A64"/>
<path d="M84.5901 141.66L244.64 49.28C246.07 48.45 247.24 49.12 247.24 50.78V176.11C247.24 177.77 246.08 179.78 244.64 180.61L84.5901 272.99C83.1601 273.82 81.9901 273.15 81.9901 271.49V146.16C81.9901 144.5 83.1501 142.49 84.5901 141.66Z" fill="white"/>
<path opacity="0.6" d="M84.5901 141.66L244.64 49.28C246.07 48.45 247.24 49.12 247.24 50.78V176.11C247.24 177.77 246.08 179.78 244.64 180.61L84.5901 272.99C83.1601 273.82 81.9901 273.15 81.9901 271.49V146.16C81.9901 144.5 83.1501 142.49 84.5901 141.66Z" fill="#BD9EFB"/>
<path d="M164.27 133.73C168.53 131.27 171.99 133.26 171.99 138.18C171.99 143.1 168.54 149.08 164.27 151.54C160.01 154 156.55 152.01 156.55 147.09C156.56 142.18 160.01 136.19 164.27 133.73Z" fill="#F0F0F0"/>
<path d="M179.48 160.05C179.48 151.97 173.8 148.38 166.8 152.42L162.42 154.95C155.42 158.99 149.74 168.82 149.74 176.91V179.09L179.47 161.94V160.05H179.48Z" fill="#F0F0F0"/>
<path d="M194.51 164.04C194.23 163.39 193.51 163.22 192.7 163.69L140.78 193.65C140.26 193.95 139.77 194.47 139.42 195.08C139.07 195.68 138.86 196.36 138.86 196.97V203.08C138.86 204.12 139.48 204.63 140.32 204.39C140.41 204.36 140.46 204.35 140.46 204.35C140.57 204.31 140.68 204.25 140.78 204.19L192.7 174.23C193.76 173.62 194.62 172.13 194.62 170.9V164.79C194.62 164.56 194.59 164.25 194.51 164.04Z" fill="#F0F0F0"/>
<path d="M145.47 194.41C146.48 193.83 147.29 194.3 147.29 195.46C147.29 196.62 146.47 198.04 145.47 198.62C144.47 199.2 143.65 198.73 143.65 197.57C143.65 196.41 144.47 194.99 145.47 194.41Z" fill="#BD9EFB"/>
<path d="M151.51 190.92C152.52 190.34 153.33 190.81 153.33 191.97C153.33 193.13 152.51 194.55 151.51 195.13C150.5 195.71 149.69 195.24 149.69 194.08C149.69 192.92 150.5 191.5 151.51 190.92Z" fill="#BD9EFB"/>
<path d="M157.54 187.44C158.55 186.86 159.36 187.33 159.36 188.49C159.36 189.65 158.54 191.07 157.54 191.65C156.54 192.23 155.72 191.76 155.72 190.6C155.72 189.44 156.53 188.02 157.54 187.44Z" fill="#BD9EFB"/>
<path d="M163.57 183.96C164.58 183.38 165.39 183.85 165.39 185.01C165.39 186.17 164.57 187.59 163.57 188.17C162.57 188.75 161.75 188.28 161.75 187.12C161.75 185.96 162.56 184.54 163.57 183.96Z" fill="#BD9EFB"/>
<path d="M169.6 180.47C170.61 179.89 171.42 180.36 171.42 181.52C171.42 182.68 170.6 184.1 169.6 184.68C168.59 185.26 167.78 184.79 167.78 183.63C167.78 182.47 168.6 181.05 169.6 180.47Z" fill="#BD9EFB"/>
<path d="M175.64 176.99C176.65 176.41 177.46 176.88 177.46 178.04C177.46 179.2 176.64 180.62 175.64 181.2C174.64 181.78 173.82 181.31 173.82 180.15C173.82 178.99 174.63 177.57 175.64 176.99Z" fill="#BD9EFB"/>
<path d="M181.67 173.51C182.68 172.93 183.49 173.4 183.49 174.56C183.49 175.72 182.67 177.14 181.67 177.72C180.66 178.3 179.85 177.83 179.85 176.67C179.85 175.51 180.66 174.09 181.67 173.51Z" fill="#BD9EFB"/>
<path d="M187.7 170.02C188.71 169.44 189.52 169.91 189.52 171.07C189.52 172.23 188.7 173.65 187.7 174.23C186.69 174.81 185.88 174.34 185.88 173.18C185.88 172.02 186.7 170.61 187.7 170.02Z" fill="#BD9EFB"/>
<path d="M96.34 289.66L250.43 200.7C251.63 200.01 253.56 200.01 254.76 200.7L262.64 205.25C263.84 205.94 263.84 207.06 262.64 207.75L108.53 296.7C107.33 297.39 105.4 297.39 104.2 296.7L96.34 292.16C95.15 291.47 95.15 290.35 96.34 289.66Z" fill="#37474F"/>
<path d="M116.65 301.39L270.74 212.43C271.94 211.74 273.87 211.74 275.07 212.43L323.55 240.42C324.75 241.11 324.75 242.23 323.55 242.92L169.64 331.76C168.44 332.45 166.5 332.45 165.31 331.77L116.67 303.89C115.46 303.19 115.46 302.08 116.65 301.39Z" fill="#263238"/>
<path d="M254.78 252.45L259.6 249.66C259.81 249.54 259.79 249.34 259.57 249.22L254 246C253.78 245.87 253.44 245.87 253.23 245.98L248.41 248.77C248.2 248.89 248.22 249.09 248.44 249.21L254.02 252.43C254.23 252.56 254.58 252.57 254.78 252.45ZM245.26 241.38L240.44 244.17C240.24 244.29 240.25 244.49 240.47 244.61L246.05 247.83C246.27 247.96 246.61 247.96 246.82 247.85L251.64 245.06C251.85 244.94 251.83 244.74 251.61 244.62L246.03 241.4C245.81 241.27 245.46 241.26 245.26 241.38ZM229.67 250.38L221.51 255.09C221.31 255.21 221.32 255.41 221.54 255.53L227.12 258.75C227.34 258.88 227.68 258.88 227.89 258.77L236.05 254.06C236.26 253.94 236.24 253.74 236.02 253.62L230.44 250.4C230.22 250.27 229.88 250.26 229.67 250.38ZM238.21 245.45L233.39 248.24C233.19 248.36 233.2 248.56 233.42 248.68L239 251.9C239.22 252.03 239.56 252.03 239.77 251.92L244.59 249.13C244.8 249.01 244.78 248.81 244.56 248.69L238.98 245.47C238.76 245.34 238.41 245.33 238.21 245.45ZM219.28 256.38L214.46 259.17C214.25 259.29 214.27 259.49 214.49 259.61L220.07 262.83C220.29 262.96 220.63 262.96 220.84 262.85L225.66 260.06C225.86 259.94 225.85 259.74 225.63 259.62L220.05 256.4C219.83 256.27 219.49 256.26 219.28 256.38ZM212.23 260.45L207.41 263.24C207.2 263.36 207.22 263.56 207.44 263.68L213.02 266.9C213.24 267.03 213.58 267.03 213.79 266.92L218.61 264.13C218.82 264.01 218.8 263.81 218.58 263.69L213 260.47C212.78 260.34 212.44 260.33 212.23 260.45ZM234.17 273.55L238.99 270.76C239.19 270.64 239.18 270.44 238.96 270.32L233.38 267.1C233.16 266.97 232.81 266.97 232.61 267.08L227.79 269.87C227.58 269.99 227.6 270.19 227.82 270.31L233.4 273.53C233.62 273.66 233.97 273.67 234.17 273.55ZM227.12 277.62L231.94 274.83C232.15 274.71 232.13 274.51 231.91 274.39L226.33 271.17C226.11 271.04 225.77 271.04 225.56 271.15L220.74 273.94C220.53 274.06 220.55 274.26 220.77 274.38L226.35 277.6C226.57 277.73 226.92 277.74 227.12 277.62ZM220.07 281.69L224.89 278.9C225.1 278.78 225.08 278.58 224.86 278.46L219.28 275.24C219.06 275.11 218.72 275.11 218.51 275.22L213.69 278.01C213.48 278.13 213.5 278.33 213.72 278.45L219.3 281.67C219.52 281.8 219.87 281.81 220.07 281.69ZM213.02 285.76L217.84 282.97C218.05 282.85 218.03 282.65 217.81 282.53L212.23 279.31C212.01 279.18 211.67 279.18 211.46 279.29L206.64 282.08C206.43 282.2 206.45 282.4 206.67 282.52L212.25 285.74C212.47 285.87 212.82 285.88 213.02 285.76ZM247.73 256.52L252.55 253.73C252.75 253.61 252.74 253.41 252.52 253.29L246.94 250.07C246.72 249.94 246.38 249.94 246.17 250.05L241.35 252.84C241.14 252.96 241.16 253.16 241.38 253.28L246.96 256.5C247.18 256.63 247.52 256.64 247.73 256.52ZM241.23 269.48L251.99 263.27C252.19 263.15 252.18 262.95 251.96 262.83L238.41 255C238.19 254.87 237.85 254.87 237.64 254.98L232.07 258.19C231.86 258.31 231.88 258.51 232.1 258.63L239.27 262.77C239.49 262.9 239.5 263.1 239.3 263.21L234.85 265.78C234.64 265.9 234.66 266.1 234.88 266.22L240.46 269.44C240.68 269.59 241.02 269.59 241.23 269.48ZM205.18 264.52L200.36 267.31C200.16 267.43 200.17 267.63 200.39 267.75L205.97 270.97C206.19 271.1 206.53 271.1 206.74 270.99L211.56 268.2C211.76 268.08 211.75 267.88 211.53 267.76L205.95 264.54C205.73 264.41 205.38 264.4 205.18 264.52ZM198.13 268.59L193.31 271.38C193.1 271.5 193.12 271.7 193.34 271.82L198.92 275.04C199.14 275.17 199.48 275.17 199.69 275.06L204.51 272.27C204.72 272.15 204.7 271.95 204.48 271.83L198.9 268.61C198.68 268.48 198.33 268.47 198.13 268.59ZM162.89 314.24C163.11 314.37 163.45 314.37 163.66 314.26L168.48 311.47C168.68 311.35 168.67 311.15 168.45 311.03L162.87 307.81C162.65 307.68 162.3 307.68 162.1 307.79L157.28 310.58C157.07 310.7 157.09 310.9 157.31 311.02L162.89 314.24ZM141.72 301.16L136.9 303.95C136.69 304.07 136.71 304.27 136.93 304.39L142.51 307.61C142.73 307.74 143.07 307.74 143.28 307.63L148.1 304.84C148.3 304.72 148.29 304.52 148.07 304.4L142.49 301.18C142.27 301.05 141.92 301.04 141.72 301.16ZM153.07 310.71C153.29 310.84 153.63 310.84 153.84 310.73L158.66 307.94C158.86 307.82 158.85 307.62 158.63 307.5L153.05 304.28C152.83 304.15 152.49 304.15 152.28 304.26L147.46 307.05C147.25 307.17 147.27 307.37 147.49 307.49L153.07 310.71ZM175.34 316.72L180.16 313.93C180.37 313.81 180.35 313.61 180.13 313.49L174.55 310.27C174.33 310.14 173.99 310.14 173.78 310.25L168.96 313.04C168.76 313.16 168.77 313.36 168.99 313.48L174.57 316.7C174.79 316.83 175.14 316.83 175.34 316.72ZM167.52 320.77C167.74 320.9 168.08 320.9 168.29 320.79L173.11 318C173.31 317.88 173.3 317.68 173.08 317.56L167.5 314.34C167.28 314.21 166.94 314.21 166.73 314.32L161.91 317.11C161.71 317.23 161.72 317.43 161.94 317.55L167.52 320.77ZM148.77 297.09L143.95 299.88C143.74 300 143.76 300.2 143.98 300.32L149.56 303.54C149.78 303.67 150.12 303.67 150.33 303.56L155.15 300.77C155.36 300.65 155.34 300.45 155.12 300.33L149.54 297.11C149.32 296.98 148.97 296.97 148.77 297.09ZM184.03 276.73L179.21 279.52C179.01 279.64 179.02 279.84 179.24 279.96L184.82 283.18C185.04 283.31 185.38 283.31 185.59 283.2L190.41 280.41C190.61 280.29 190.6 280.09 190.38 279.97L184.8 276.75C184.57 276.62 184.23 276.62 184.03 276.73ZM155.82 293.02L151 295.8C150.79 295.92 150.81 296.12 151.03 296.24L156.61 299.46C156.83 299.59 157.17 299.59 157.38 299.48L162.2 296.69C162.41 296.57 162.39 296.37 162.17 296.25L156.59 293.03C156.37 292.91 156.03 292.9 155.82 293.02ZM191.08 272.66L186.26 275.45C186.05 275.57 186.07 275.77 186.29 275.89L191.87 279.11C192.09 279.24 192.43 279.24 192.64 279.13L197.46 276.34C197.67 276.22 197.65 276.02 197.43 275.9L191.85 272.68C191.63 272.55 191.28 272.54 191.08 272.66ZM176.97 280.8L172.15 283.59C171.94 283.71 171.96 283.91 172.18 284.03L177.76 287.25C177.98 287.38 178.32 287.38 178.53 287.27L183.35 284.48C183.56 284.36 183.54 284.16 183.32 284.04L177.74 280.82C177.52 280.69 177.18 280.69 176.97 280.8ZM169.92 284.88L165.1 287.67C164.89 287.79 164.91 287.99 165.13 288.11L170.71 291.33C170.93 291.46 171.27 291.46 171.48 291.35L176.3 288.56C176.5 288.44 176.49 288.24 176.27 288.12L170.69 284.9C170.47 284.76 170.13 284.76 169.92 284.88ZM162.87 288.95L158.05 291.74C157.84 291.86 157.86 292.06 158.08 292.18L163.66 295.4C163.88 295.53 164.22 295.53 164.43 295.42L169.25 292.63C169.45 292.51 169.44 292.31 169.22 292.19L163.64 288.97C163.42 288.84 163.08 288.83 162.87 288.95ZM198.92 293.9L203.74 291.11C203.95 290.99 203.93 290.79 203.71 290.67L198.13 287.45C197.91 287.32 197.57 287.32 197.36 287.43L192.54 290.22C192.33 290.34 192.35 290.54 192.57 290.66L198.15 293.88C198.37 294.01 198.71 294.02 198.92 293.9ZM260.85 232.38L256.03 235.17C255.82 235.29 255.84 235.49 256.06 235.61L261.64 238.83C261.86 238.96 262.2 238.96 262.41 238.85L267.23 236.06C267.44 235.94 267.42 235.74 267.2 235.62L261.62 232.4C261.4 232.27 261.05 232.26 260.85 232.38ZM252.31 237.31L247.49 240.1C247.28 240.22 247.3 240.42 247.52 240.54L253.1 243.76C253.32 243.89 253.66 243.89 253.87 243.78L258.69 240.99C258.89 240.87 258.88 240.67 258.66 240.55L253.08 237.33C252.86 237.2 252.52 237.19 252.31 237.31ZM267.9 228.31L263.08 231.1C262.88 231.22 262.89 231.42 263.11 231.54L268.69 234.76C268.91 234.89 269.25 234.89 269.46 234.78L274.28 231.99C274.48 231.87 274.47 231.67 274.25 231.55L268.67 228.33C268.45 228.2 268.1 228.19 267.9 228.31ZM231.4 265.95L236.22 263.16C236.43 263.04 236.41 262.84 236.19 262.72L230.61 259.5C230.39 259.37 230.05 259.37 229.84 259.48L225.02 262.27C224.81 262.39 224.83 262.59 225.05 262.71L230.63 265.93C230.85 266.06 231.2 266.06 231.4 265.95ZM275.72 224.25C275.5 224.12 275.16 224.12 274.95 224.23L270.13 227.02C269.93 227.14 269.94 227.34 270.16 227.46L275.74 230.68C275.96 230.81 276.3 230.81 276.51 230.7L281.33 227.91C281.54 227.79 281.52 227.59 281.3 227.47L275.72 224.25ZM205.97 289.83L210.79 287.04C211 286.92 210.98 286.72 210.76 286.6L205.18 283.38C204.96 283.25 204.62 283.25 204.41 283.36L199.59 286.15C199.38 286.27 199.4 286.47 199.62 286.59L205.2 289.81C205.42 289.94 205.76 289.95 205.97 289.83ZM292.44 239.91L297.26 237.12C297.47 237 297.45 236.8 297.23 236.68L291.65 233.46C291.43 233.33 291.09 233.33 290.88 233.44L286.06 236.23C285.86 236.35 285.87 236.55 286.09 236.67L291.67 239.89C291.89 240.02 292.24 240.03 292.44 239.91ZM277.42 239.38L282.24 236.59C282.44 236.47 282.43 236.27 282.21 236.15L276.63 232.93C276.41 232.8 276.07 232.8 275.86 232.91L271.04 235.7C270.83 235.82 270.85 236.02 271.07 236.14L276.65 239.36C276.87 239.49 277.21 239.5 277.42 239.38ZM283.69 228.85C283.47 228.72 283.13 228.72 282.92 228.83L278.1 231.62C277.9 231.74 277.91 231.94 278.13 232.06L283.71 235.28C283.93 235.41 284.27 235.41 284.48 235.3L289.3 232.51C289.5 232.39 289.49 232.19 289.27 232.07L283.69 228.85ZM285.17 228L298.72 235.82C298.94 235.95 299.28 235.95 299.49 235.84L304.31 233.05C304.52 232.93 304.5 232.73 304.28 232.61L290.73 224.79C290.51 224.66 290.17 224.66 289.96 224.77L285.14 227.56C284.94 227.67 284.95 227.87 285.17 228ZM268.82 236.98L264 239.77C263.79 239.89 263.81 240.09 264.03 240.21L269.61 243.43C269.83 243.56 270.17 243.56 270.38 243.45L275.2 240.66C275.4 240.54 275.39 240.34 275.17 240.22L269.59 237C269.37 236.87 269.02 236.86 268.82 236.98ZM215.75 267.62L210.93 270.41C210.72 270.53 210.74 270.73 210.96 270.85L216.54 274.07C216.76 274.2 217.1 274.2 217.31 274.09L222.13 271.3C222.34 271.18 222.32 270.98 222.1 270.86L216.52 267.64C216.3 267.51 215.95 267.5 215.75 267.62ZM284.62 243.96C284.84 244.09 285.18 244.09 285.39 243.98L290.21 241.19C290.41 241.07 290.4 240.87 290.18 240.75L284.6 237.53C284.38 237.4 284.04 237.4 283.83 237.51L279.01 240.3C278.8 240.42 278.82 240.62 279.04 240.74L284.62 243.96ZM222.8 263.55L217.98 266.34C217.77 266.46 217.79 266.66 218.01 266.78L223.59 270C223.81 270.13 224.15 270.13 224.36 270.02L229.18 267.23C229.39 267.11 229.37 266.91 229.15 266.79L223.57 263.57C223.35 263.44 223 263.43 222.8 263.55ZM169.94 310.17C170.16 310.3 170.5 310.3 170.71 310.19L175.53 307.4C175.73 307.28 175.72 307.08 175.5 306.96L169.92 303.74C169.7 303.61 169.36 303.61 169.15 303.72L164.33 306.51C164.12 306.63 164.14 306.83 164.36 306.95L169.94 310.17ZM159.34 300.19L154.52 302.98C154.32 303.1 154.33 303.3 154.55 303.42L160.13 306.64C160.35 306.77 160.69 306.77 160.9 306.66L165.72 303.87C165.93 303.75 165.91 303.55 165.69 303.43L160.11 300.21C159.89 300.08 159.54 300.07 159.34 300.19ZM177.76 306.12L182.58 303.33C182.79 303.21 182.77 303.01 182.55 302.89L176.97 299.67C176.75 299.54 176.41 299.54 176.2 299.65L171.38 302.44C171.18 302.56 171.19 302.76 171.41 302.88L176.99 306.1C177.21 306.23 177.56 306.23 177.76 306.12ZM184.82 302.04L189.64 299.25C189.85 299.13 189.83 298.93 189.61 298.81L184.03 295.59C183.81 295.46 183.47 295.46 183.26 295.57L178.44 298.36C178.24 298.48 178.25 298.68 178.47 298.8L184.05 302.02C184.27 302.16 184.61 302.16 184.82 302.04ZM191.87 297.97L196.69 295.18C196.89 295.06 196.88 294.86 196.66 294.74L191.08 291.52C190.86 291.39 190.52 291.39 190.31 291.5L185.49 294.29C185.28 294.41 185.3 294.61 185.52 294.73L191.1 297.95C191.32 298.08 191.66 298.09 191.87 297.97ZM166.39 296.12L161.57 298.91C161.36 299.03 161.38 299.23 161.6 299.35L167.18 302.57C167.4 302.7 167.74 302.7 167.95 302.59L172.77 299.8C172.98 299.68 172.96 299.48 172.74 299.36L167.16 296.14C166.94 296.01 166.59 296 166.39 296.12ZM173.44 292.05L168.62 294.84C168.41 294.96 168.43 295.16 168.65 295.28L174.23 298.5C174.45 298.63 174.79 298.63 175 298.52L179.82 295.73C180.02 295.61 180.01 295.41 179.79 295.29L174.21 292.07C173.99 291.94 173.64 291.93 173.44 292.05ZM201.64 275.76L196.82 278.55C196.61 278.67 196.63 278.87 196.85 278.99L202.43 282.21C202.65 282.34 202.99 282.34 203.2 282.23L208.02 279.44C208.23 279.32 208.21 279.12 207.99 279L202.41 275.78C202.19 275.65 201.85 275.65 201.64 275.76ZM194.59 279.83L189.77 282.62C189.57 282.74 189.58 282.94 189.8 283.06L195.38 286.28C195.6 286.41 195.95 286.41 196.15 286.3L200.97 283.51C201.17 283.39 201.16 283.19 200.94 283.07L195.36 279.85C195.14 279.72 194.8 279.72 194.59 279.83ZM208.7 271.69L203.88 274.48C203.67 274.6 203.69 274.8 203.91 274.92L209.49 278.14C209.71 278.27 210.05 278.27 210.26 278.16L215.08 275.37C215.29 275.25 215.27 275.05 215.05 274.93L209.47 271.71C209.24 271.58 208.9 271.57 208.7 271.69ZM180.49 287.98L175.67 290.77C175.46 290.89 175.48 291.09 175.7 291.21L181.28 294.43C181.5 294.56 181.84 294.56 182.05 294.45L186.87 291.66C187.07 291.54 187.06 291.34 186.84 291.22L181.26 288C181.04 287.87 180.69 287.86 180.49 287.98ZM187.54 283.91L182.72 286.7C182.52 286.82 182.53 287.02 182.75 287.14L188.33 290.36C188.55 290.49 188.89 290.49 189.1 290.38L193.92 287.59C194.13 287.47 194.11 287.27 193.89 287.15L188.31 283.93C188.09 283.79 187.75 283.79 187.54 283.91ZM182.39 312.65L187.21 309.86C187.42 309.74 187.4 309.54 187.18 309.42L181.6 306.2C181.38 306.07 181.04 306.07 180.83 306.18L176.01 308.97C175.8 309.09 175.82 309.29 176.04 309.41L181.62 312.63C181.84 312.76 182.19 312.76 182.39 312.65ZM141.01 308.47L135.43 305.25C135.21 305.12 134.87 305.12 134.66 305.23L129.84 308.02C129.63 308.14 129.65 308.34 129.87 308.46L135.45 311.68C135.67 311.81 136.01 311.81 136.22 311.7L141.04 308.91C141.25 308.79 141.23 308.59 141.01 308.47ZM151.58 311.57L146 308.35C145.78 308.22 145.44 308.22 145.23 308.33L137.81 312.62C137.6 312.74 137.62 312.94 137.84 313.06L143.42 316.28C143.64 316.41 143.98 316.41 144.19 316.3L151.61 312.01C151.81 311.89 151.8 311.7 151.58 311.57ZM132.46 302.24L126.88 299.02C126.66 298.89 126.32 298.89 126.11 299L120.17 302.43C119.97 302.55 119.98 302.75 120.2 302.87L125.78 306.09C126 306.22 126.35 306.22 126.55 306.11L132.49 302.68C132.69 302.57 132.68 302.37 132.46 302.24ZM137.01 299.61C137.23 299.74 137.57 299.74 137.78 299.63L142.6 296.84C142.81 296.72 142.79 296.52 142.57 296.4L136.99 293.18C136.77 293.05 136.43 293.05 136.22 293.16L131.4 295.95C131.19 296.07 131.21 296.27 131.43 296.39L137.01 299.61ZM161.41 315.1L155.83 311.88C155.61 311.75 155.27 311.75 155.06 311.86L145.78 317.22C145.58 317.34 145.59 317.54 145.81 317.66L151.39 320.88C151.61 321.01 151.95 321.01 152.16 320.9L161.44 315.54C161.64 315.42 161.63 315.23 161.41 315.1ZM166.04 321.63L160.46 318.41C160.24 318.28 159.9 318.28 159.69 318.39L153.75 321.82C153.54 321.94 153.56 322.14 153.78 322.26L159.36 325.48C159.58 325.61 159.92 325.61 160.13 325.5L166.07 322.07C166.27 321.95 166.26 321.76 166.04 321.63ZM189.43 269.34C189.65 269.47 189.99 269.47 190.2 269.36L195.02 266.57C195.23 266.45 195.21 266.25 194.99 266.13L189.41 262.91C189.19 262.78 188.84 262.78 188.64 262.89L183.82 265.68C183.61 265.8 183.63 266 183.85 266.12L189.43 269.34ZM175.33 277.49C175.55 277.62 175.89 277.62 176.1 277.51L180.92 274.72C181.13 274.6 181.11 274.4 180.89 274.28L175.31 271.06C175.09 270.93 174.75 270.93 174.54 271.04L169.72 273.83C169.51 273.95 169.53 274.15 169.75 274.27L175.33 277.49ZM144.06 295.54C144.28 295.67 144.63 295.67 144.83 295.56L149.65 292.77C149.85 292.65 149.84 292.45 149.62 292.33L144.04 289.11C143.82 288.98 143.48 288.98 143.27 289.09L138.45 291.88C138.25 292 138.26 292.2 138.48 292.32L144.06 295.54ZM182.38 273.41C182.6 273.54 182.94 273.54 183.15 273.43L187.97 270.64C188.17 270.52 188.16 270.32 187.94 270.2L182.36 266.98C182.14 266.85 181.8 266.85 181.59 266.96L176.77 269.75C176.56 269.87 176.58 270.07 176.8 270.19L182.38 273.41ZM168.28 281.56C168.5 281.69 168.84 281.69 169.05 281.58L173.87 278.79C174.08 278.67 174.06 278.47 173.84 278.35L168.26 275.13C168.04 275 167.7 275 167.49 275.11L162.67 277.9C162.46 278.02 162.48 278.22 162.7 278.34L168.28 281.56ZM169.91 322.15C169.69 322.02 169.35 322.02 169.14 322.13L161.72 326.42C161.51 326.54 161.53 326.74 161.75 326.86L167.33 330.08C167.55 330.21 167.89 330.21 168.1 330.1L175.52 325.81C175.73 325.69 175.71 325.49 175.49 325.37L169.91 322.15ZM158.16 287.4C158.38 287.53 158.72 287.53 158.93 287.42L163.75 284.63C163.96 284.51 163.94 284.31 163.72 284.19L158.14 280.97C157.92 280.84 157.58 280.84 157.37 280.95L152.55 283.74C152.34 283.86 152.36 284.06 152.58 284.18L158.16 287.4ZM151.11 291.47C151.33 291.6 151.67 291.6 151.88 291.49L156.7 288.7C156.91 288.58 156.89 288.38 156.67 288.26L151.09 285.04C150.87 284.91 150.53 284.91 150.32 285.02L145.5 287.81C145.3 287.93 145.31 288.13 145.53 288.25L151.11 291.47ZM300.55 246.73C300.33 246.6 299.99 246.6 299.78 246.71L287.9 253.57C287.69 253.69 287.71 253.89 287.93 254.01L293.51 257.23C293.73 257.36 294.07 257.36 294.28 257.25L306.16 250.39C306.36 250.27 306.35 250.07 306.13 249.95L300.55 246.73ZM284.96 255.73C284.74 255.6 284.4 255.6 284.19 255.71L279.37 258.5C279.16 258.62 279.18 258.82 279.4 258.94L284.98 262.16C285.2 262.29 285.54 262.29 285.75 262.18L290.57 259.39C290.78 259.27 290.76 259.07 290.54 258.95L284.96 255.73ZM189.44 308.57L194.26 305.78C194.46 305.66 194.45 305.46 194.23 305.34L188.65 302.12C188.43 301.99 188.09 301.99 187.88 302.1L183.06 304.89C182.85 305.01 182.87 305.21 183.09 305.33L188.67 308.55C188.9 308.69 189.24 308.69 189.44 308.57ZM270.86 263.87C270.64 263.74 270.3 263.74 270.09 263.85L265.27 266.64C265.07 266.76 265.08 266.96 265.3 267.08L270.88 270.3C271.1 270.43 271.44 270.43 271.65 270.32L276.47 267.53C276.68 267.41 276.66 267.21 276.44 267.09L270.86 263.87ZM307.6 242.66C307.38 242.53 307.04 242.53 306.83 242.64L302.01 245.43C301.81 245.55 301.82 245.75 302.04 245.87L307.62 249.09C307.84 249.22 308.18 249.22 308.39 249.11L313.21 246.32C313.42 246.2 313.4 246 313.18 245.88L307.6 242.66ZM320.23 241.81L306.68 233.99C306.46 233.86 306.12 233.86 305.91 233.97L301.09 236.76C300.88 236.88 300.9 237.08 301.12 237.2L314.67 245.02C314.89 245.15 315.23 245.15 315.44 245.04L320.26 242.25C320.46 242.13 320.45 241.94 320.23 241.81ZM244.51 279.08C244.29 278.95 243.95 278.95 243.74 279.06L237.8 282.49C237.59 282.61 237.61 282.81 237.83 282.93L243.41 286.15C243.63 286.28 243.97 286.28 244.18 286.17L250.12 282.74C250.33 282.62 250.31 282.42 250.09 282.3L244.51 279.08ZM262.32 268.8C262.1 268.67 261.76 268.67 261.55 268.78L254.13 273.07C253.93 273.19 253.94 273.39 254.16 273.51L259.74 276.73C259.96 276.86 260.3 276.86 260.51 276.75L267.93 272.46C268.14 272.34 268.12 272.14 267.9 272.02L262.32 268.8ZM228.18 288.51C227.96 288.38 227.62 288.38 227.41 288.49L187.7 311.42C187.49 311.54 187.51 311.74 187.73 311.86L193.31 315.08C193.53 315.21 193.87 315.21 194.08 315.1L233.79 292.17C234 292.05 233.98 291.85 233.76 291.73L228.18 288.51ZM186.24 312.72C186.02 312.59 185.67 312.59 185.47 312.7L179.53 316.13C179.32 316.25 179.34 316.45 179.56 316.57L185.14 319.79C185.36 319.92 185.7 319.92 185.91 319.81L191.85 316.38C192.05 316.26 192.04 316.06 191.82 315.94L186.24 312.72ZM236.34 283.8C236.12 283.67 235.78 283.67 235.57 283.78L229.63 287.21C229.42 287.33 229.44 287.53 229.66 287.65L235.24 290.87C235.46 291 235.8 291 236.01 290.89L241.95 287.46C242.16 287.34 242.14 287.14 241.92 287.02L236.34 283.8ZM178.08 317.44C177.86 317.31 177.52 317.31 177.31 317.42L171.37 320.85C171.17 320.97 171.18 321.17 171.4 321.29L176.98 324.51C177.2 324.64 177.54 324.64 177.75 324.53L183.69 321.1C183.89 320.98 183.88 320.78 183.66 320.66L178.08 317.44ZM252.67 274.37C252.45 274.24 252.11 274.24 251.9 274.35L245.96 277.78C245.76 277.9 245.77 278.1 245.99 278.22L251.57 281.44C251.79 281.57 252.13 281.57 252.34 281.46L258.28 278.03C258.49 277.91 258.47 277.71 258.25 277.59L252.67 274.37ZM277.91 259.8C277.69 259.67 277.35 259.67 277.14 259.78L272.32 262.57C272.11 262.69 272.13 262.89 272.35 263.01L277.93 266.23C278.15 266.36 278.49 266.36 278.7 266.25L283.52 263.46C283.73 263.34 283.71 263.14 283.49 263.02L277.91 259.8ZM293.36 248.58L298.18 245.79C298.39 245.67 298.37 245.47 298.15 245.35L292.57 242.13C292.35 242 292.01 242 291.8 242.11L286.98 244.9C286.78 245.02 286.79 245.22 287.01 245.34L292.59 248.56C292.81 248.69 293.15 248.7 293.36 248.58ZM261.83 248.38L266.65 245.59C266.86 245.47 266.84 245.27 266.62 245.15L261.04 241.93C260.82 241.8 260.48 241.8 260.27 241.91L255.45 244.7C255.24 244.82 255.26 245.02 255.48 245.14L261.06 248.36C261.28 248.49 261.63 248.49 261.83 248.38ZM245.86 276.01L259.96 267.87C260.17 267.75 260.15 267.55 259.93 267.43L254.35 264.21C254.13 264.08 253.79 264.08 253.58 264.19L239.48 272.33C239.27 272.45 239.29 272.65 239.51 272.77L245.09 275.99C245.31 276.12 245.65 276.12 245.86 276.01ZM285.54 252.63C285.76 252.76 286.1 252.76 286.31 252.65L291.13 249.86C291.34 249.74 291.32 249.54 291.1 249.42L285.52 246.2C285.3 246.07 284.96 246.07 284.75 246.18L279.93 248.97C279.73 249.09 279.74 249.29 279.96 249.41L285.54 252.63ZM278.34 248.05L283.16 245.26C283.36 245.14 283.35 244.94 283.13 244.82L277.55 241.6C277.33 241.47 276.98 241.47 276.78 241.58L271.96 244.37C271.75 244.49 271.77 244.69 271.99 244.81L277.57 248.03C277.79 248.16 278.13 248.17 278.34 248.05ZM238.8 280.08L243.62 277.29C243.83 277.17 243.81 276.97 243.59 276.85L238.01 273.63C237.79 273.5 237.45 273.5 237.24 273.61L232.42 276.4C232.21 276.52 232.23 276.72 232.45 276.84L238.03 280.06C238.25 280.19 238.6 280.19 238.8 280.08ZM269.95 261.63C270.17 261.76 270.51 261.76 270.72 261.65L275.54 258.86C275.75 258.74 275.73 258.54 275.51 258.42L269.93 255.2C269.71 255.07 269.37 255.07 269.16 255.18L264.34 257.97C264.13 258.09 264.15 258.29 264.37 258.41L269.95 261.63ZM203.55 300.43L208.37 297.64C208.57 297.52 208.56 297.32 208.34 297.2L202.76 293.98C202.54 293.85 202.2 293.85 201.99 293.96L197.17 296.75C196.96 296.87 196.98 297.07 197.2 297.19L202.78 300.41C203 300.54 203.34 300.55 203.55 300.43ZM210.6 296.36L215.42 293.57C215.62 293.45 215.61 293.25 215.39 293.13L209.81 289.91C209.59 289.78 209.25 289.78 209.04 289.89L204.22 292.68C204.01 292.8 204.03 293 204.25 293.12L209.83 296.34C210.05 296.47 210.39 296.48 210.6 296.36ZM196.5 304.5L201.32 301.71C201.53 301.59 201.51 301.39 201.29 301.27L195.71 298.05C195.49 297.92 195.15 297.92 194.94 298.03L190.12 300.82C189.91 300.94 189.93 301.14 190.15 301.26L195.73 304.48C195.95 304.61 196.29 304.62 196.5 304.5ZM224.7 288.22L229.52 285.43C229.73 285.31 229.71 285.11 229.49 284.99L223.91 281.77C223.69 281.64 223.35 281.64 223.14 281.75L218.32 284.54C218.12 284.66 218.13 284.86 218.35 284.98L223.93 288.2C224.15 288.33 224.5 288.34 224.7 288.22ZM217.65 292.29L222.47 289.5C222.68 289.38 222.66 289.18 222.44 289.06L216.86 285.84C216.64 285.71 216.3 285.71 216.09 285.82L211.27 288.61C211.07 288.73 211.08 288.93 211.3 289.05L216.88 292.27C217.1 292.4 217.45 292.41 217.65 292.29ZM231.75 284.15L236.57 281.36C236.77 281.24 236.76 281.04 236.54 280.92L230.96 277.7C230.74 277.57 230.4 277.57 230.19 277.68L225.37 280.47C225.17 280.59 225.18 280.79 225.4 280.91L230.98 284.13C231.2 284.26 231.55 284.27 231.75 284.15ZM264.01 223.92C264.23 224.05 264.57 224.05 264.78 223.94L269.6 221.15C269.81 221.03 269.79 220.83 269.57 220.71L268.09 219.85C267.87 219.72 267.53 219.72 267.32 219.83L262.5 222.62C262.3 222.74 262.31 222.94 262.53 223.06L264.01 223.92ZM229.32 246.32C229.54 246.45 229.88 246.45 230.09 246.34L234.91 243.55C235.11 243.43 235.1 243.23 234.88 243.11L229.3 239.89C229.08 239.76 228.73 239.76 228.53 239.87L223.71 242.66C223.5 242.78 223.52 242.98 223.74 243.1L229.32 246.32ZM243.42 238.17C243.64 238.3 243.98 238.3 244.19 238.19L249.01 235.4C249.22 235.28 249.2 235.08 248.98 234.96L243.4 231.74C243.18 231.61 242.84 231.61 242.63 231.72L237.81 234.51C237.61 234.63 237.62 234.83 237.84 234.95L243.42 238.17ZM220.71 251.29C220.93 251.42 221.27 251.42 221.48 251.31L226.3 248.52C226.5 248.4 226.49 248.2 226.27 248.08L220.69 244.86C220.47 244.73 220.13 244.73 219.92 244.84L215.1 247.63C214.89 247.75 214.91 247.95 215.13 248.07L220.71 251.29ZM236.37 242.25C236.59 242.38 236.93 242.38 237.14 242.27L241.96 239.48C242.16 239.36 242.15 239.16 241.93 239.04L236.35 235.82C236.13 235.69 235.79 235.69 235.58 235.8L230.76 238.59C230.55 238.71 230.57 238.91 230.79 239.03L236.37 242.25ZM206.61 259.43C206.83 259.56 207.17 259.56 207.38 259.45L212.2 256.66C212.41 256.54 212.39 256.34 212.17 256.22L206.59 253C206.37 252.87 206.03 252.87 205.82 252.98L201 255.77C200.79 255.89 200.81 256.09 201.03 256.21L206.61 259.43ZM213.66 255.36C213.88 255.49 214.22 255.49 214.43 255.38L219.25 252.59C219.46 252.47 219.44 252.27 219.22 252.15L213.64 248.93C213.42 248.8 213.08 248.8 212.87 248.91L208.05 251.7C207.84 251.82 207.86 252.02 208.08 252.14L213.66 255.36ZM249.91 232.06C250.13 232.19 250.47 232.19 250.68 232.08L255.5 229.29C255.7 229.17 255.69 228.97 255.47 228.85L253.98 227.99C253.76 227.86 253.42 227.86 253.21 227.97L248.39 230.76C248.18 230.88 248.2 231.08 248.42 231.2L249.91 232.06ZM271.06 219.85C271.28 219.98 271.62 219.98 271.83 219.87L276.65 217.08C276.85 216.96 276.84 216.76 276.62 216.64L275.14 215.78C274.92 215.65 274.58 215.65 274.37 215.76L269.55 218.55C269.34 218.67 269.36 218.87 269.58 218.99L271.06 219.85ZM282.78 226.62C283 226.75 283.34 226.75 283.55 226.64L288.37 223.85C288.58 223.73 288.56 223.53 288.34 223.41L282.76 220.19C282.54 220.06 282.2 220.06 281.99 220.17L277.17 222.96C276.96 223.08 276.98 223.28 277.2 223.4L282.78 226.62ZM300.41 244.51L305.23 241.72C305.44 241.6 305.42 241.4 305.2 241.28L299.62 238.06C299.4 237.93 299.06 237.93 298.85 238.04L294.03 240.83C293.83 240.95 293.84 241.15 294.06 241.27L299.64 244.49C299.86 244.62 300.2 244.63 300.41 244.51ZM256.96 227.99C257.18 228.12 257.52 228.12 257.73 228.01L262.55 225.22C262.76 225.1 262.74 224.9 262.52 224.78L261.03 223.92C260.81 223.79 260.47 223.79 260.26 223.9L255.44 226.69C255.24 226.81 255.25 227.01 255.47 227.13L256.96 227.99ZM199.55 263.5C199.77 263.63 200.12 263.63 200.32 263.52L205.14 260.73C205.35 260.61 205.33 260.41 205.11 260.29L199.53 257.07C199.31 256.94 198.97 256.94 198.76 257.05L193.94 259.84C193.74 259.96 193.75 260.16 193.97 260.28L199.55 263.5Z" fill="#455A64"/>
<path d="M230.82 305.83L278.43 278.34C279.86 277.51 282.19 277.51 283.63 278.34L310.93 294.1C312.36 294.93 312.36 296.27 310.93 297.1L263.32 324.59C261.89 325.42 259.56 325.42 258.12 324.59L230.82 308.83C229.39 308 229.39 306.65 230.82 305.83Z" fill="#263238"/>
<path d="M318.38 173.64C318.38 173.63 318.39 173.63 318.39 173.63L318.33 173.59L310.2 168.91C309.73 168.7 309.04 168.9 308.21 169.53C300.65 175.32 290.48 177.11 282.17 174.47C281.64 173.98 281.13 173.45 280.65 172.89C280.6 172.83 280.55 172.77 280.5 172.72H280.49C280.21 172.41 279.93 172.18 279.65 172.03L279.51 171.95L271.37 167.28C270.44 166.84 269.6 167.28 269.04 168.66C261.18 188.19 244.43 207.98 233.26 212.93C232.43 213.3 231.66 213.87 231.06 214.57C230.27 215.48 229.78 216.6 229.82 217.77L231.43 261.62C231.43 274.29 236.78 287.67 247.69 294.18L256.11 299.04L256.26 299.12C260.44 301.51 265.41 302.91 271.18 302.91C272.35 302.91 273.54 302.86 274.77 302.74C276.83 302.54 279.69 301.05 281.13 299.56C305.54 274.35 317.41 240.23 317.41 221.35L319.02 175.48C319.06 174.49 318.82 173.88 318.38 173.64Z" fill="#BD9EFB"/>
<path d="M319.02 175.48L317.41 221.35C317.41 240.23 305.54 274.35 281.13 299.56C279.69 301.05 276.83 302.54 274.77 302.74C273.54 302.86 272.35 302.91 271.18 302.91C265.41 302.91 260.44 301.51 256.26 299.12L256.11 299.04L255.82 298.86C244.91 292.35 239.56 278.97 239.56 266.3L237.95 222.45C237.91 221.28 238.4 220.16 239.19 219.25C239.79 218.55 240.56 217.98 241.39 217.61C252.56 212.66 269.31 192.87 277.17 173.34C277.73 171.96 278.58 171.51 279.51 171.95L279.65 172.03C279.93 172.18 280.21 172.41 280.49 172.72H280.5C280.55 172.77 280.6 172.83 280.65 172.89C288.99 182.6 305.39 182.59 316.34 174.21C317.17 173.58 317.86 173.38 318.33 173.59L318.39 173.63C318.39 173.63 318.38 173.63 318.38 173.64C318.82 173.88 319.06 174.49 319.02 175.48Z" fill="#BD9EFB"/>
<path opacity="0.4" d="M318.33 173.58C317.86 173.37 317.17 173.57 316.34 174.2C306.03 182.09 290.88 182.56 282.19 174.46C290.5 177.11 300.65 175.31 308.21 169.52C309.04 168.89 309.73 168.69 310.2 168.9L318.33 173.58Z" fill="white"/>
<path opacity="0.4" d="M279.51 171.94C278.58 171.5 277.73 171.95 277.17 173.33C269.31 192.86 252.56 212.65 241.39 217.6C240.56 217.97 239.79 218.54 239.19 219.24C238.98 219.48 238.79 219.74 238.63 220.01L230.51 215.32C230.67 215.06 230.85 214.8 231.06 214.56C231.17 214.43 231.29 214.31 231.42 214.19L231.43 214.18C231.48 214.14 231.52 214.09 231.57 214.04C231.62 214 231.66 213.96 231.71 213.91C232.17 213.51 232.7 213.16 233.26 212.92C244.43 207.97 261.18 188.18 269.04 168.65C269.6 167.27 270.44 166.83 271.37 167.27L279.51 171.94Z" fill="white"/>
<path d="M231.43 214.17C231.47 214.12 231.52 214.08 231.57 214.04C231.52 214.09 231.48 214.14 231.43 214.17C231.43 214.18 231.42 214.17 231.43 214.17Z" fill="#BD9EFB"/>
<path opacity="0.15" d="M231.57 214.04C231.52 214.09 231.48 214.14 231.43 214.18C231.43 214.18 231.42 214.17 231.43 214.17C231.47 214.12 231.52 214.08 231.57 214.04Z" fill="black"/>
<path opacity="0.15" d="M256.26 299.11L256.11 299.04L247.69 294.17C236.78 287.66 231.43 274.28 231.43 261.61L229.82 217.76C229.79 216.9 230.05 216.06 230.51 215.32L238.63 220.01C238.18 220.75 237.92 221.58 237.95 222.44L239.56 266.29C239.56 278.96 244.91 292.34 255.82 298.85L256.11 299.03L256.26 299.11Z" fill="black"/>
<path d="M284.98 258.77L271.98 266.27L273.99 242.76C272.44 241.94 271.45 239.92 271.45 237.01C271.45 231.83 274.6 225.82 278.48 223.58C282.36 221.34 285.51 223.72 285.51 228.9C285.51 231.8 284.52 234.97 282.96 237.59L284.98 258.77Z" fill="#455A64"/>
<path d="M284.98 258.77L273.21 251.97L271.99 266.27L284.98 258.77Z" fill="#37474F"/>
<path d="M278.48 223.58C275.94 225.05 273.72 228.13 272.49 231.54L282.97 237.59C284.52 234.97 285.52 231.81 285.52 228.9C285.51 223.72 282.37 221.34 278.48 223.58Z" fill="#37474F"/>
<path d="M115.92 395.33V399.24C115.9 403.83 118.93 408.43 125 411.93C134.14 417.21 147.57 418.49 158.81 415.8L169.25 421.83L177.27 420.02L182.74 423.18L183.04 429.8L185.99 431.5L193.4 432.15L198.72 435.12V438.85L205.4 442.71H222.39L228.48 439.2V435.25L174.14 407.82C176.64 405.16 177.9 402.22 177.9 399.28V395.33C177.08 391.52 173.9 389.55 168.83 386.62C156.72 379.63 137.09 379.63 124.99 386.62C119.56 389.77 116.47 391.23 115.92 395.33ZM132.56 390.77C135.99 388.79 141.55 388.79 144.98 390.77C148.41 392.75 148.41 395.96 144.98 397.94C141.55 399.92 135.99 399.92 132.56 397.94C129.13 395.96 129.13 392.75 132.56 390.77Z" fill="#BD9EFB"/>
<path opacity="0.1" d="M115.92 395.33V399.24C115.9 403.83 118.93 408.43 125 411.93C134.14 417.21 147.57 418.49 158.81 415.8L169.25 421.83L177.27 420.02L182.74 423.18L183.04 429.8L185.99 431.5L193.4 432.15L198.72 435.12V438.85L205.4 442.71H222.39L228.48 439.2V435.25L174.14 407.82C176.64 405.16 177.9 402.22 177.9 399.28V395.33C177.08 391.52 173.9 389.55 168.83 386.62C156.72 379.63 137.09 379.63 124.99 386.62C119.56 389.77 116.47 391.23 115.92 395.33ZM132.56 390.77C135.99 388.79 141.55 388.79 144.98 390.77C148.41 392.75 148.41 395.96 144.98 397.94C141.55 399.92 135.99 399.92 132.56 397.94C129.13 395.96 129.13 392.75 132.56 390.77Z" fill="black"/>
<path d="M125 407.99C134.14 413.27 147.57 414.55 158.81 411.86L169.25 417.89L177.27 416.08L182.74 419.24L183.04 425.86L185.99 427.56L193.4 428.21L199.18 431.43L198.73 434.91L205.41 438.77H222.4L228.49 435.26L174.15 403.89C180.55 397.1 178.79 388.43 168.85 382.69C156.74 375.7 137.11 375.7 125.01 382.69C112.89 389.67 112.89 401 125 407.99ZM132.56 386.82C135.99 384.84 141.55 384.84 144.98 386.82C148.41 388.8 148.41 392.01 144.98 393.99C141.55 395.97 135.99 395.97 132.56 393.99C129.13 392.01 129.13 388.8 132.56 386.82Z" fill="#BD9EFB"/>
<path opacity="0.3" d="M146.92 409.8C139.23 409.8 132.06 408.1 126.72 405.02C122.04 402.32 119.36 398.79 119.36 395.34C119.36 391.89 122.04 388.36 126.72 385.66C132.06 382.58 139.24 380.88 146.92 380.88C154.61 380.88 161.78 382.58 167.12 385.66C171.8 388.36 174.48 391.89 174.48 395.34C174.48 398.79 171.8 402.32 167.12 405.02C161.78 408.1 154.61 409.8 146.92 409.8ZM146.92 382.25C139.47 382.25 132.54 383.88 127.4 386.85C123.16 389.3 120.72 392.4 120.72 395.34C120.72 398.29 123.15 401.38 127.4 403.83C132.54 406.79 139.47 408.43 146.92 408.43C154.37 408.43 161.3 406.8 166.44 403.83C170.68 401.38 173.12 398.28 173.12 395.34C173.12 392.39 170.69 389.3 166.44 386.85C161.3 383.88 154.37 382.25 146.92 382.25Z" fill="black"/>
<path opacity="0.1" d="M135.76 412.03V415.97C143.17 417.62 151.45 417.56 158.8 415.81V411.87C151.45 413.62 143.17 413.68 135.76 412.03Z" fill="black"/>
<path opacity="0.1" d="M169.25 417.89V421.84L177.27 420.02V416.08L169.25 417.89Z" fill="black"/>
<path opacity="0.1" d="M182.74 419.24V423.19L183.04 429.8V425.86L182.74 419.24Z" fill="black"/>
<path opacity="0.1" d="M185.99 427.56V431.51L193.4 432.16V428.21L185.99 427.56Z" fill="black"/>
<path opacity="0.1" d="M222.4 438.77H205.41V442.72H222.4V438.77Z" fill="black"/>
<path opacity="0.15" d="M228.49 435.26V439.2L222.4 442.71V438.77L225.06 437.23V438.93L226.54 438.08V436.36L228.49 435.26Z" fill="black"/>
<path d="M226.54 436.36L225.06 437.23V438.93L226.54 438.08V436.36Z" fill="#BD9EFB"/>
<path opacity="0.15" d="M226.54 436.36V438.08L170.81 405.9L172.29 405.04L226.54 436.36Z" fill="black"/>
<path opacity="0.15" d="M172.29 405.04V406.76L170.81 405.9L172.29 405.04Z" fill="black"/>
<path d="M414.53 288.56C415.23 262.51 413.14 256.27 406.21 251.5L403.52 266.59C403.52 266.59 406.68 284.38 406.34 290.3C406.04 295.5 405.54 302.01 404.31 306.22C404.09 306.97 403.59 307.59 402.93 308C401.16 309.1 400.45 310.24 399.12 311.63C398.08 312.72 397.19 312.99 397.33 313.34C397.51 313.79 398.25 314.51 399.53 314.12C400.17 313.92 401 313.42 402.04 312.76C402.04 312.76 401.3 314.93 399.47 317.17C396.99 320.21 396.89 322.07 401.88 322.11C405.01 322.14 407.51 320.21 409.87 313.3C410.55 311.31 411.61 308.17 412.07 305.55C413.27 298.73 414.42 292.75 414.53 288.56Z" fill="#B16668"/>
<path d="M400.38 249.52C403.69 249.04 408.19 249.73 411.09 254.93C414 260.13 414.71 269.07 415.04 277.96C415.04 277.96 409.27 282.79 402.34 280.41L400.38 249.52Z" fill="#BD9EFB"/>
<path opacity="0.7" d="M400.38 249.52C403.69 249.04 408.19 249.73 411.09 254.93C414 260.13 414.71 269.07 415.04 277.96C415.04 277.96 409.27 282.79 402.34 280.41L400.38 249.52Z" fill="black"/>
<path d="M410.12 392.78C410.65 392.98 410.78 393.98 410.86 395.97C410.92 397.48 411.24 400.11 409.48 400.63C407.72 401.15 405.13 400.89 404 399.47C402.59 397.7 401.64 396.14 399.62 393.98C397.87 392.1 395.98 390.35 395.28 387.72C394.64 385.34 395.17 384.31 396.8 383.62C399.03 382.67 402.53 385.77 404.28 386.26C405.77 386.68 409.59 392.58 410.12 392.78Z" fill="#263238"/>
<path d="M410.12 390.93V393.37C410.12 393.37 407.58 395.32 403.94 393.54C403.83 393.3 403.3 390.04 403.3 390.04L410.12 390.93Z" fill="#B16668"/>
<path d="M390.32 406.86C390.32 406.86 391.02 408.99 391.4 410.84C391.7 412.32 392.13 414.79 391.61 415.9C391.09 417.01 389.07 417.73 385.95 417.7C383.92 417.68 380.77 419.06 378.6 420.27C376.37 421.52 371.72 422.01 369.36 421.74C366.58 421.41 363.69 419.8 363.24 418.65C362.79 417.5 363.39 416.3 369.95 413.5C370.01 413.47 379.07 410.53 382.24 407.02L390.32 406.86Z" fill="#263238"/>
<path d="M390.32 404.22C390.32 404.22 390.31 406.03 390.32 407.07C390.33 408.11 389.1 409.65 385.94 409.54C383.71 409.46 382.16 408.86 382.25 407.03V404.39L390.32 404.22Z" fill="#B16668"/>
<path d="M411.71 358.5C410.59 350.51 408.82 345.77 408.82 345.77C408.82 345.77 409.69 334.79 410.11 324.38C410.56 313.13 410.09 299 410.3 296.19C410.3 296.19 374.01 288.85 373.36 301.85C372.71 314.85 374.79 347.94 375.22 353.66C375.65 359.37 376.64 364.42 377.82 373.68C378.98 382.82 382.25 404.39 382.25 404.39C386.4 406.63 390.32 404.22 390.32 404.22C390.32 404.22 392.87 378.22 392.61 371.63C392.28 363.58 390.11 357.25 390.11 357.25C390.11 357.25 390.8 346.53 391.41 337.21C392.02 327.89 392.66 323.41 392.8 319.35L393.58 318.96C393.58 318.96 394.38 335.05 394.8 340.76C395.23 346.47 396.14 351.95 397.79 362.56C399.22 371.76 403.49 391.23 403.49 391.23C407.64 393.47 410.11 390.94 410.11 390.94C410.11 390.94 412.82 366.49 411.71 358.5Z" fill="#37474F"/>
<path d="M392.8 319.35C392.8 319.35 401.6 315.01 406.01 311.1C406.01 311.1 401.92 316.86 396.55 319.42C396.55 319.42 394.64 339.4 394.65 339.01L393.55 319.32L392.8 319.35Z" fill="#263238"/>
<path d="M384.96 245.41L387.11 257.23L397.79 256.45L395.55 243.05L384.96 245.41Z" fill="#B16668"/>
<path d="M409.06 255.58C408 252.37 403.93 248.87 399.85 249.63C392.35 251.02 386.41 252.51 381.98 254.09C378.25 255.42 374.84 258.65 374.53 270.94C374.53 270.94 373.28 299.58 373.26 305.12C382.64 308.83 392.39 308.72 397.79 307.54C409.01 305.09 410.37 300.43 410.37 300.43C410.37 300.43 410.51 279.83 410.18 270.94C409.89 263.38 409.79 257.79 409.06 255.58Z" fill="#BD9EFB"/>
<g opacity="0.15">
<g opacity="0.15">
<path opacity="0.15" d="M409.06 255.58C408 252.37 403.93 248.87 399.85 249.63C392.35 251.02 386.41 252.51 381.98 254.09C378.25 255.42 374.84 258.65 374.53 270.94C374.53 270.94 373.28 299.58 373.26 305.12C382.64 308.83 392.39 308.72 397.79 307.54C409.01 305.09 410.37 300.43 410.37 300.43C410.37 300.43 410.51 279.83 410.18 270.94C409.89 263.38 409.79 257.79 409.06 255.58Z" fill="black"/>
</g>
</g>
<path d="M376.73 231.03C376.73 231.03 374.02 235.35 374.35 235.76C374.68 236.17 376.75 236.5 376.75 236.5L376.73 231.03Z" fill="#9A4A4D"/>
<path d="M384.24 219.09C378.59 220.41 377.01 222.94 376.68 231.97C376.33 241.4 377.36 244.34 378.63 245.58C379.48 246.42 384.13 246.47 386.45 245.77C389.36 244.9 395.93 242.4 398.92 237.59C402.44 231.94 403.23 224.36 399.26 221.35C393.67 217.11 386.54 218.55 384.24 219.09Z" fill="#B16668"/>
<path d="M376.75 221.44C378.41 224.28 382 225.63 382 225.63C383.08 226.86 382.49 231.67 384.39 232.44C384.39 232.44 385.21 228.94 388.15 229.31C391.11 229.68 391.6 233.44 389.79 235.77C387.98 238.1 386.23 237.26 386.23 237.26C386.23 237.26 386.43 242.23 388.7 245C388.7 245 391.23 245.76 395.82 244.67C398.64 244 402.57 240.37 404.17 236.58C407.56 228.56 407.65 221.41 402.53 219.38C401.9 215.73 398.98 214.16 395.68 213.48C388.58 212.02 383.99 216.45 378.53 216.06C375.39 215.83 374.81 218.11 376.75 221.44Z" fill="#263238"/>
<path d="M402.64 220.59L405.99 218.51C405.42 217.59 404.2 217.3 403.28 217.87C402.35 218.45 402.07 219.67 402.64 220.59Z" fill="#263238"/>
<path d="M336.84 275.37C338.6 276.15 359.28 291.44 362.51 289.66C365.73 287.88 382.28 268.55 382.28 268.55C387.08 260.59 382.28 254.05 382.28 254.05C382.28 254.05 376.97 255.03 374.2 259.23C371.43 263.43 359.43 278.47 359.43 278.47C356.47 276.99 353.52 275.48 350.58 273.96C348.16 272.71 345.73 271.45 343.35 270.1C342.76 269.76 341.98 269.44 341.49 268.95C340.32 267.79 340.52 264.99 340.54 263.47C340.55 262.76 340.56 262.05 340.64 261.34C340.74 260.47 340.91 258.34 339.34 259.02C339.04 259.15 338.79 259.39 338.59 259.65C338.34 259.97 338.15 260.33 338.03 260.72C337.74 261.64 337.83 262.65 337.56 263.57C337.52 263.71 337.47 263.84 337.37 263.94C337.24 264.06 337.05 264.1 336.88 264.09C334.6 264.02 332.44 260.83 331.4 259.13C330.93 258.37 330.48 257.53 329.67 257.16C328.42 256.58 326.92 257.41 326.12 258.53C325.1 259.96 324.79 261.81 324.99 263.55C325.27 265.97 326.2 268.2 327.96 269.85C330.63 272.33 333.54 273.9 336.84 275.37Z" fill="#B16668"/>
<path d="M383.96 253.42C381.68 253.68 377.89 253.85 374.17 258.06C369.83 262.98 364.11 271 364.11 271C364.11 271 365.66 278.78 374.11 280.42C374.11 280.42 381.94 272.4 384.11 267.99C386.3 263.57 386.65 256.4 383.96 253.42Z" fill="#BD9EFB"/>
<path opacity="0.7" d="M383.96 253.42C381.68 253.68 377.89 253.85 374.17 258.06C369.83 262.98 364.11 271 364.11 271C364.11 271 365.66 278.78 374.11 280.42C374.11 280.42 381.94 272.4 384.11 267.99C386.3 263.57 386.65 256.4 383.96 253.42Z" fill="black"/>
</svg>
